<svg id="logo" xmlns="http://www.w3.org/2000/svg" viewBox="0 0 876.75 1336.77"><defs><style>.cls-1{fill:#05c5ff;}</style></defs><title>gps-logo</title><g id="gps"><path class="cls-1" d="M923.38,1454l-11.14-14.31c-136-174.73-234-323.92-308.43-469.51C572.53,909,549.09,854.57,532.13,803.75c-21-62.89-32.52-121-35.27-177.67C492.15,529,516.8,428,566.26,341.54c25.26-44.14,56.15-83.13,91.81-115.87C695.68,191.12,737.82,164.3,783.3,146a381.71,381.71,0,0,1,70.89-20.88c63.94-12.23,130.33-10,192,6.29,103,27.31,195.12,94.47,252.59,184.26,36.37,56.83,59.72,122.83,69.38,196.18,8.78,66.57,5.7,138.85-8.88,209C1328.71,867.92,1253.83,999.13,1192,1097A2737.87,2737.87,0,0,1,935.34,1440.4ZM936.7,147.26a409.38,409.38,0,0,0-76.88,7.28,351.24,351.24,0,0,0-65.29,19.23c-164.57,66.4-277.16,256-267.71,450.86,4.78,98.6,36.77,201,103.7,331.93,71.48,139.85,165.2,283.33,294.23,450.34A2708.16,2708.16,0,0,0,1166.65,1081c60.47-95.74,133.66-223.89,163.25-366.25,29.39-141.46,8.84-281-56.4-382.95-53.47-83.54-139.13-146-235-171.44A398.28,398.28,0,0,0,936.7,147.26Z" transform="translate(-496.29 -117.27)"/><path class="cls-1" d="M937.5,847.5a307,307,0,1,1,217.08-89.92A305,305,0,0,1,937.5,847.5Zm0-584c-152.74,0-277,124.26-277,277s124.26,277,277,277,277-124.26,277-277S1090.24,263.5,937.5,263.5Z" transform="translate(-496.29 -117.27)"/></g></svg>