<svg id="logo" xmlns="http://www.w3.org/2000/svg" viewBox="0 0 432.13 379.22"><defs><style>.cls-1{fill:#05c5ff;}</style></defs><title>heart-logo</title><g id="heart"><path class="cls-1" d="M899,1001.75a9,9,0,0,1-6-2.54L742,849c-20-19.86-42.6-42.38-53.46-71.67-10.61-28.65-8.45-62.39,5.77-90.27a118.48,118.48,0,0,1,63.82-56.92c28.1-10.64,58.44-10.17,85.43,1.33,19.71,8.39,38.31,22.13,55.42,40.89,21.59-27.13,54.64-45,88.69-47.52,38.9-2.82,77.9,14.11,101.77,44.2A115.38,115.38,0,0,1,1114,741.63h0c-.45,50.33-37.32,86.73-69.85,118.84-2.73,2.7-5.44,5.37-8.09,8l-17.69,17.68c-18.12,18.11-46.4,46.38-70.17,70.11l-30.41,30.37c-3.89,3.89-7,7-9.23,9.2L906,998.36C903.44,1000.93,901,1001.75,899,1001.75Zm-99.82-361.9A100.76,100.76,0,0,0,709.8,695c-12,23.62-13.91,52.15-4.95,76.31,9.52,25.71,30.71,46.79,49.41,65.39L899,980.77c19.16-19.09,79-78.91,107-106.91l17.69-17.68q4-4,8.17-8.09c30.13-29.75,64.29-63.47,64.67-106.61.19-22.23-7.39-44.67-20.8-61.58-20.35-25.65-53.64-40.08-86.88-37.66-32.48,2.36-63.92,21.1-82,48.91l-6.46,9.91-7.54-9.13c-17.28-21-36.17-35.91-56.14-44.41A95.66,95.66,0,0,0,799.13,639.85Z" transform="translate(-681.87 -622.53)"/></g></svg>