<svg id="logo" xmlns="http://www.w3.org/2000/svg" viewBox="0 0 577 679"><defs><style>.cls-1{fill:#05c5ff;}</style></defs><title>lock-logo</title><g id="lock"><path class="cls-1" d="M884.48,986.5h-188C589.26,986.5,502,899.24,502,792V657A136.34,136.34,0,0,1,638.5,520.5h304a137.31,137.31,0,0,1,29.12,3.12,135.62,135.62,0,0,1,40,15.66A136.43,136.43,0,0,1,1079,657V792C1079,899.24,991.74,986.5,884.48,986.5Zm-246-446A116.46,116.46,0,0,0,522,657V792c0,96.23,78.29,174.52,174.52,174.52h188C980.71,966.5,1059,888.21,1059,792V657a117.05,117.05,0,0,0-57.5-100.48,115.55,115.55,0,0,0-34.12-13.36,117.8,117.8,0,0,0-24.88-2.66Z" transform="translate(-502 -307.5)"/><path class="cls-1" d="M563.11,564.06l-1-12.63c-.44-5.82-.66-11.68-.66-17.43a226.5,226.5,0,1,1,453,0c0,4.69-.15,9.52-.44,14.36l-.75,12.22-10.55-6.22a117.74,117.74,0,0,0-34.85-13.64A120.26,120.26,0,0,0,942.5,538h-304a119.4,119.4,0,0,0-30.11,3.84,118.21,118.21,0,0,0-34.66,15.32ZM788,322.5c-116.62,0-211.5,94.88-211.5,211.5,0,1.38,0,2.76,0,4.15a133.39,133.39,0,0,1,62-15.15h304a135,135,0,0,1,28.59,3.06,132.43,132.43,0,0,1,28.4,9.63c0-.57,0-1.13,0-1.69C999.5,417.38,904.62,322.5,788,322.5Z" transform="translate(-502 -307.5)"/><path class="cls-1" d="M599,544.28V534c0-104.21,84.79-189,189-189A189,189,0,0,1,977,533.37l0,9.33-9.12-2A120.26,120.26,0,0,0,942.5,538h-304a119.4,119.4,0,0,0-30.11,3.84ZM788,360c-93,0-169.18,73.33-173.78,165.2A134.94,134.94,0,0,1,638.5,523h304a134.49,134.49,0,0,1,19.24,1.38C956.72,432.94,880.6,360,788,360Z" transform="translate(-502 -307.5)"/><path class="cls-1" d="M816.1,825H760.9A53,53,0,0,1,708,772.1V716.9A53,53,0,0,1,760.9,664h55.2A53,53,0,0,1,869,716.9v55.2A53,53,0,0,1,816.1,825ZM760.9,679A37.94,37.94,0,0,0,723,716.9v55.2A37.94,37.94,0,0,0,760.9,810h55.2A37.94,37.94,0,0,0,854,772.1V716.9A37.94,37.94,0,0,0,816.1,679Z" transform="translate(-502 -307.5)"/><path class="cls-1" d="M806.27,799H770.73A36.78,36.78,0,0,1,734,762.27V726.73A36.78,36.78,0,0,1,770.73,690h35.54A36.78,36.78,0,0,1,843,726.73v35.54A36.78,36.78,0,0,1,806.27,799Zm-35.54-94A21.76,21.76,0,0,0,749,726.73v35.54A21.76,21.76,0,0,0,770.73,784h35.54A21.76,21.76,0,0,0,828,762.27V726.73A21.76,21.76,0,0,0,806.27,705Z" transform="translate(-502 -307.5)"/></g></svg>