<svg id="text_tool" data-name="text tool" xmlns="http://www.w3.org/2000/svg" viewBox="0 0 614.29 167.41"><title>logo</title><path d="M700,592.87h27.29a7.63,7.63,0,0,1,5.46,2.21,7.41,7.41,0,0,1,0,10.71,7.61,7.61,0,0,1-5.45,2.21H699a21.85,21.85,0,0,1-11.16-3.42c-3.84-2.28-6.52-4.83-8-7.66l-17.47-33.76a34.08,34.08,0,0,1-3.51-14.94,30.65,30.65,0,0,1,3.33-14.68l17.65-33.4a23.28,23.28,0,0,1,7.83-8.23,18.52,18.52,0,0,1,10.26-3.56H727.8a7.24,7.24,0,0,1,5.36,2.25,7.33,7.33,0,0,1,2.2,5.31,7.6,7.6,0,0,1-2.2,5.45,7.16,7.16,0,0,1-5.36,2.3H699q-3.6,0-5.86,4.23l-16.77,31.32a18.1,18.1,0,0,0-2,8.74,19.63,19.63,0,0,0,2.15,9.37l16,30.79A7.61,7.61,0,0,0,700,592.87Z" transform="translate(-658.84 -463)"/><path d="M829.75,606.87H784a7.15,7.15,0,0,1-5.36-2.3,7.59,7.59,0,0,1-2.21-5.45,7.34,7.34,0,0,1,2.21-5.31,7.21,7.21,0,0,1,5.36-2.25h15.12V502.34h-15.3a7.56,7.56,0,1,1,0-15.12h23a7.69,7.69,0,0,1,7.57,7.56v96.78h15.3a7.69,7.69,0,0,1,7.56,7.56,7.58,7.58,0,0,1-2.2,5.45A7.16,7.16,0,0,1,829.75,606.87Z" transform="translate(-658.84 -463)"/><path d="M1150.15,591.6h-32.32a21.73,21.73,0,0,1-14.59-5.14l-14.67-12.78q-7-5.85-7-15.84V538.12q-.36-9.63,7.92-16.75l13.23-11.43a21.27,21.27,0,0,1,13.69-5.22h33.94a7.61,7.61,0,0,1,5.36,13,7.4,7.4,0,0,1-5.36,2.16h-32.5a8.82,8.82,0,0,0-5.85,2.43l-12.16,10.36a8.4,8.4,0,0,0-3,6.75v18.46a6.5,6.5,0,0,0,2.34,5l13.33,11.34a9.63,9.63,0,0,0,6.66,2.25h31a7.34,7.34,0,0,1,5.31,2.21,7.21,7.21,0,0,1,2.25,5.35,7.53,7.53,0,0,1-7.56,7.57Z" transform="translate(-658.84 -463)"/><path d="M1196.69,600.43V496.09a7.51,7.51,0,0,1,2.21-5.49,7.5,7.5,0,0,1,10.71,0,7.55,7.55,0,0,1,2.21,5.49v61.77l40.69-34.58a8.71,8.71,0,0,1,5.67-2.16,7.11,7.11,0,0,1,5.4,2.3,7.71,7.71,0,0,1,2.16,5.46,6.65,6.65,0,0,1-2.31,5.32L1231.69,561l39.09,34.31a6.06,6.06,0,0,1,2.34,5,7.76,7.76,0,0,1-2.16,5.35,6.89,6.89,0,0,1-5.31,2.39,8.36,8.36,0,0,1-5.58-2.07l-40.31-35-7.94,6.68v22.85a7.57,7.57,0,1,1-15.13,0Z" transform="translate(-658.84 -463)"/><path d="M954.75,630.41a83.71,83.71,0,1,1,83.71-83.71A83.8,83.8,0,0,1,954.75,630.41Zm0-153.84a70.14,70.14,0,1,0,70.14,70.13A70.21,70.21,0,0,0,954.75,476.57Z" transform="translate(-658.84 -463)"/><path d="M954.75,553.49A6.79,6.79,0,0,1,948,546.7V499.2a6.79,6.79,0,1,1,13.57,0v47.5A6.79,6.79,0,0,1,954.75,553.49Z" transform="translate(-658.84 -463)"/><path d="M993.65,580.76a6.73,6.73,0,0,1-3.88-1.23l-38.91-27.27a6.78,6.78,0,0,1,7.79-11.11l38.91,27.26a6.79,6.79,0,0,1-3.91,12.35Z" transform="translate(-658.84 -463)"/></svg>